<?xml version="1.0" standalone="no"?><!DOCTYPE svg PUBLIC "-//W3C//DTD SVG 1.1//EN" "http://www.w3.org/Graphics/SVG/1.1/DTD/svg11.dtd"><svg t="1558667091860" class="icon" style="" viewBox="0 0 1024 1024" version="1.1" xmlns="http://www.w3.org/2000/svg" p-id="2661" xmlns:xlink="http://www.w3.org/1999/xlink" width="200" height="200"><defs><style type="text/css"></style></defs><path d="M853.333333 85.333333H170.666667c-46.933333 0-85.333333 38.4-85.333334 85.333334v682.666666c0 46.933333 38.4 85.333333 85.333334 85.333334h682.666666c46.933333 0 85.333333-38.4 85.333334-85.333334V170.666667c0-46.933333-38.4-85.333333-85.333334-85.333334z m-341.333333 256c93.866667 0 170.666667 76.8 170.666667 170.666667s-76.8 170.666667-170.666667 170.666667-170.666667-76.8-170.666667-170.666667 76.8-170.666667 170.666667-170.666667zM192 853.333333c-12.8 0-21.333333-8.533333-21.333333-21.333333V469.333333h89.6c-4.266667 12.8-4.266667 29.866667-4.266667 42.666667 0 140.8 115.2 256 256 256s256-115.2 256-256c0-12.8 0-29.866667-4.266667-42.666667H853.333333v362.666667c0 12.8-8.533333 21.333333-21.333333 21.333333h-640zM853.333333 277.333333c0 12.8-8.533333 21.333333-21.333333 21.333334h-85.333333c-12.8 0-21.333333-8.533333-21.333334-21.333334v-85.333333c0-12.8 8.533333-21.333333 21.333334-21.333333h85.333333c12.8 0 21.333333 8.533333 21.333333 21.333333v85.333333z" p-id="2662" fill="#515151"></path></svg>